<?xml version="1.0" encoding="utf-8"?>
<svg version="1.1" xmlns:xlink="http://www.w3.org/1999/xlink" width="23px" height="35px" xmlns="http://www.w3.org/2000/svg">
  <g transform="matrix(1 0 0 1 -746 -3351 )">
    <path d="M 15.5654296875 15.791015625  C 16.6884765625 14.6516927083333  17.25 13.2769097222222  17.25 11.6666666666667  C 17.25 10.0564236111111  16.6884765625 8.681640625  15.5654296875 7.54231770833333  C 14.4423828125 6.40299479166667  13.0872395833333 5.83333333333333  11.5 5.83333333333333  C 9.91276041666667 5.83333333333333  8.5576171875 6.40299479166667  7.4345703125 7.54231770833333  C 6.3115234375 8.681640625  5.75 10.0564236111111  5.75 11.6666666666667  C 5.75 13.2769097222222  6.3115234375 14.6516927083333  7.4345703125 15.791015625  C 8.5576171875 16.9303385416667  9.91276041666667 17.5  11.5 17.5  C 13.0872395833333 17.5  14.4423828125 16.9303385416667  15.5654296875 15.791015625  Z M 19.630859375 3.41796875  C 21.876953125 5.69661458333333  23 8.44618055555555  23 11.6666666666667  C 23 13.3224826388889  22.7529296875 14.6820746527778  22.2587890625 15.7454427083333  L 14.0830078125 33.3821614583333  C 13.8434244791667 33.8834635416667  13.48779296875 34.2784288194444  13.01611328125 34.5670572916667  C 12.54443359375 34.8556857638889  12.0390625 35  11.5 35  C 10.9609375 35  10.45556640625 34.8556857638889  9.98388671875 34.5670572916667  C 9.51220703125 34.2784288194444  9.1640625 33.8834635416667  8.939453125 33.3821614583333  L 0.7412109375 15.7454427083333  C 0.2470703125 14.6820746527778  0 13.3224826388889  0 11.6666666666667  C 0 8.44618055555555  1.123046875 5.69661458333333  3.369140625 3.41796875  C 5.615234375 1.13932291666667  8.32552083333333 0  11.5 0  C 14.6744791666667 0  17.384765625 1.13932291666667  19.630859375 3.41796875  Z " fill-rule="nonzero" fill="#555555" stroke="none" transform="matrix(1 0 0 1 746 3351 )" />
  </g>
</svg>