<?xml version="1.0" encoding="utf-8"?>
<svg version="1.1" xmlns:xlink="http://www.w3.org/1999/xlink" width="23px" height="23px" xmlns="http://www.w3.org/2000/svg">
  <g transform="matrix(1 0 0 1 -746 -3426 )">
    <path d="M 22.9509943181818 17.8217329545455  C 22.9836647727273 17.8979640151515  23 18.0123106060606  23 18.1647727272727  C 23 18.4588068181818  22.9455492424242 18.8426846590909  22.8366477272727 19.31640625  C 22.7277462121212 19.7901278409091  22.6133996212121 20.163115530303  22.4936079545455 20.4353693181818  C 22.2649147727273 20.9798768939394  21.600615530303 21.5570549242424  20.5007102272727 22.1669034090909  C 19.4770359848485 22.7223011363636  18.4642518939394 23  17.4623579545455 23  C 17.1683238636364 23  16.8797348484849 22.9809422348485  16.5965909090909 22.9428267045455  C 16.313446969697 22.9047111742424  16.0003551136364 22.8366477272727  15.6573153409091 22.7386363636364  C 15.3142755681818 22.640625  15.0583570075758 22.5616714015152  14.8895596590909 22.5017755681818  C 14.7207623106061 22.4418797348485  14.4185606060606 22.3302556818182  13.9829545454545 22.1669034090909  C 13.5473484848485 22.0035511363636  13.2805397727273 21.9055397727273  13.1825284090909 21.8728693181818  C 12.1152935606061 21.4917140151515  11.1624053030303 21.0397727272727  10.3238636363636 20.5170454545455  C 8.94081439393939 19.6567234848485  7.50331439393939 18.4805871212121  6.01136363636364 16.9886363636364  C 4.51941287878788 15.4966856060606  3.34327651515152 14.0591856060606  2.48295454545455 12.6761363636364  C 1.96022727272727 11.8375946969697  1.50828598484848 10.8847064393939  1.12713068181818 9.81747159090909  C 1.09446022727273 9.71946022727272  0.996448863636364 9.45265151515151  0.833096590909091 9.01704545454546  C 0.669744318181818 8.58143939393939  0.558120265151515 8.27923768939394  0.498224431818182 8.11044034090909  C 0.438328598484849 7.94164299242424  0.359375 7.68572443181818  0.261363636363636 7.34268465909091  C 0.163352272727273 6.99964488636363  0.0952888257575758 6.68655303030303  0.0571732954545455 6.40340909090909  C 0.0190577651515151 6.12026515151515  0 5.83167613636364  0 5.53764204545455  C 0 4.5357481060606  0.277698863636364 3.52296401515151  0.833096590909091 2.49928977272727  C 1.44294507575758 1.39938446969697  2.02012310606061 0.735085227272728  2.56463068181818 0.506392045454545  C 2.83688446969697 0.386600378787877  3.20987215909091 0.272253787878785  3.68359375 0.163352272727272  C 4.15731534090909 0.0544507575757566  4.54119318181818 0  4.83522727272727 0  C 4.98768939393939 0  5.10203598484849 0.0163352272727277  5.17826704545455 0.0490056818181807  C 5.37428977272727 0.114346590909092  5.66287878787879 0.528172348484848  6.04403409090909 1.29048295454546  C 6.16382575757576 1.49739583333333  6.32717803030303 1.79142992424242  6.53409090909091 2.17258522727273  C 6.74100378787879 2.55374053030303  6.93158143939394 2.89950284090909  7.10582386363636 3.20987215909091  C 7.28006628787879 3.52024147727273  7.44886363636364 3.81155303030303  7.61221590909091 4.08380681818182  C 7.64488636363636 4.12736742424242  7.74017518939394 4.26349431818182  7.89808238636364 4.4921875  C 8.05598958333334 4.72088068181818  8.17305871212121 4.91418087121212  8.24928977272727 5.07208806818182  C 8.32552083333333 5.22999526515151  8.36363636363636 5.38517992424242  8.36363636363636 5.53764204545455  C 8.36363636363636 5.75544507575757  8.20845170454546 6.02769886363636  7.89808238636364 6.35440340909091  C 7.58771306818182 6.68110795454546  7.25011837121212 6.98058712121212  6.88529829545455 7.25284090909091  C 6.52047821969697 7.52509469696969  6.18288352272727 7.81368371212121  5.87251420454545 8.11860795454546  C 5.56214488636364 8.4235321969697  5.40696022727273 8.67400568181818  5.40696022727273 8.87002840909091  C 5.40696022727273 8.96803977272727  5.43418560606061 9.09055397727273  5.48863636363636 9.23757102272727  C 5.54308712121212 9.38458806818182  5.58937026515152 9.49621212121212  5.62748579545455 9.57244318181818  C 5.66560132575758 9.64867424242424  5.74183238636364 9.77935606060606  5.85617897727273 9.96448863636364  C 5.97052556818182 10.1496212121212  6.03314393939394 10.2530776515152  6.04403409090909 10.2748579545455  C 6.87168560606061 11.7668087121212  7.81912878787879 13.0464015151515  8.88636363636364 14.1136363636364  C 9.95359848484849 15.1808712121212  11.2331912878788 16.1283143939394  12.7251420454545 16.9559659090909  C 12.7469223484848 16.9668560606061  12.8503787878788 17.0294744318182  13.0355113636364 17.1438210227273  C 13.2206439393939 17.2581676136364  13.3513257575758 17.3343986742424  13.4275568181818 17.3725142045455  C 13.5037878787879 17.4106297348485  13.6154119318182 17.4569128787879  13.7624289772727 17.5113636363636  C 13.9094460227273 17.5658143939394  14.0319602272727 17.5930397727273  14.1299715909091 17.5930397727273  C 14.3259943181818 17.5930397727273  14.5764678030303 17.4378551136364  14.8813920454545 17.1274857954545  C 15.1863162878788 16.8171164772727  15.4749053030303 16.479521780303  15.7471590909091 16.1147017045455  C 16.0194128787879 15.7498816287879  16.3188920454545 15.4122869318182  16.6455965909091 15.1019176136364  C 16.9723011363636 14.7915482954545  17.2445549242424 14.6363636363636  17.4623579545455 14.6363636363636  C 17.6148200757576 14.6363636363636  17.7700047348485 14.6744791666667  17.9279119318182 14.7507102272727  C 18.0858191287879 14.8269412878788  18.2791193181818 14.9440104166667  18.5078125 15.1019176136364  C 18.7365056818182 15.2598248106061  18.8726325757576 15.3551136363636  18.9161931818182 15.3877840909091  C 19.188446969697 15.5511363636364  19.4797585227273 15.7199337121212  19.7901278409091 15.8941761363636  C 20.1004971590909 16.0684185606061  20.446259469697 16.2589962121212  20.8274147727273 16.4659090909091  C 21.2085700757576 16.672821969697  21.5026041666667 16.8361742424242  21.7095170454545 16.9559659090909  C 22.4718276515152 17.3371212121212  22.8856534090909 17.6257102272727  22.9509943181818 17.8217329545455  Z " fill-rule="nonzero" fill="#555555" stroke="none" transform="matrix(1 0 0 1 746 3426 )" />
  </g>
</svg>