<?xml version="1.0" encoding="utf-8"?>
<svg version="1.1" xmlns:xlink="http://www.w3.org/1999/xlink" width="23px" height="23px" xmlns="http://www.w3.org/2000/svg">
  <g transform="matrix(1 0 0 1 -746 -3471 )">
    <path d="M 6.37890625 0.0513392857142868  C 6.43880208333333 0.0171130952380965  6.50297619047619 0  6.57142857142857 0  C 6.68266369047619 0  6.77892485119048 0.0406436011904772  6.86021205357143 0.121930803571429  C 6.94149925595238 0.203218005952381  6.98214285714286 0.299479166666665  7 0.410714285714287  L 7 19.3035714285714  C 6.98214285714286 19.4747023809524  6.90941220238095 19.594494047619  6.76395089285714 19.6629464285714  L 0.603236607142857 22.9486607142857  C 0.543340773809524 22.9828869047619  0.479166666666667 23  0.410714285714286 23  C 0.299479166666667 23  0.203218005952381 22.9593563988095  0.121930803571429 22.8780691964286  C 0.0406436011904762 22.7967819940476  0 22.7005208333333  0 22.5892857142857  L 0 3.69642857142857  C 0 3.52529761904762  0.0727306547619048 3.40550595238095  0.218191964285714 3.33705357142857  L 6.37890625 0.0513392857142868  Z M 22.3967633928571 0.0513392857142868  C 22.4566592261905 0.0171130952380965  22.5208333333333 0  22.5892857142857 0  C 22.7005208333333 0  22.7967819940476 0.0406436011904772  22.8780691964286 0.121930803571429  C 22.9593563988095 0.203218005952381  23 0.299479166666665  23 0.410714285714287  L 23 19.3035714285714  C 23 19.4747023809524  22.9272693452381 19.594494047619  22.7818080357143 19.6629464285714  L 16.62109375 22.9486607142857  C 16.5611979166667 22.9828869047619  16.4970238095238 23  16.4285714285714 23  C 16.3173363095238 23  16.2210751488095 22.9593563988095  16.1397879464286 22.8780691964286  C 16.0585007440476 22.7967819940476  16.0178571428571 22.7005208333333  16 22.5892857142857  L 16 3.69642857142857  C 16.0178571428571 3.52529761904762  16.090587797619 3.40550595238095  16.2360491071429 3.33705357142857  L 22.3967633928571 0.0513392857142868  Z M 7.92550223214286 0.121930803571429  C 8.00678943452381 0.0406436011904772  8.10305059523809 0  8.21428571428572 0  C 8.28273809523809 0  8.34263392857143 0.0128348214285711  8.39397321428572 0.0385044642857132  L 14.9654017857143 3.32421875  C 15.1194196428571 3.40978422619047  15.1964285714286 3.53385416666667  15 3.69642857142857  L 15 22.5892857142857  C 15.1964285714286 22.7005208333333  15.1557849702381 22.7967819940476  15.0744977678571 22.8780691964286  C 14.9932105654762 22.9593563988095  14.8969494047619 23  14.7857142857143 23  C 14.7172619047619 23  14.6573660714286 22.9871651785714  14.6060267857143 22.9614955357143  L 8.03459821428572 19.67578125  C 7.88058035714286 19.5902157738095  7.80357142857143 19.4661458333333  8 19.3035714285714  L 8 0.410714285714287  C 7.80357142857143 0.299479166666665  7.84421502976191 0.203218005952381  7.92550223214286 0.121930803571429  Z " fill-rule="nonzero" fill="#555555" stroke="none" transform="matrix(1 0 0 1 746 3471 )" />
  </g>
</svg>